<?xml version="1.0" encoding="utf-8"?>

<!-- Uploaded to: SVG Repo, www.svgrepo.com, Generator: SVG Repo Mixer Tools -->
<svg version="1.1" id="Icons" xmlns="http://www.w3.org/2000/svg" xmlns:xlink="http://www.w3.org/1999/xlink" 
	 viewBox="0 0 32 32" xml:space="preserve">
<style type="text/css">
	.st0{fill:none;stroke:#000000;stroke-width:2;stroke-linecap:round;stroke-linejoin:round;stroke-miterlimit:10;}
</style>
<path d="M22,14c-4.4,0-8,3.6-8,8s3.6,8,8,8s8-3.6,8-8S26.4,14,22,14z M25,21.1c-0.2,0.1-0.4,0.2-0.6,0.2c-0.3,0-0.6-0.2-0.8-0.4
	c-0.4-0.5-1-0.9-1.6-0.9c-0.6,0-1-0.4-1-1s0.4-1,1-1c1.3,0,2.5,0.6,3.3,1.7C25.6,20.2,25.5,20.8,25,21.1z"/>
<path d="M9,14c-2.8,0-5-2.2-5-5s2.2-5,5-5s5,2.2,5,5S11.8,14,9,14z"/>
<path d="M5.5,26C3,26,1,24,1,21.5S3,17,5.5,17s4.5,2,4.5,4.5S8,26,5.5,26z"/>
<path d="M19,7c-0.6,0-1-0.4-1-1V3c0-0.6,0.4-1,1-1s1,0.4,1,1v3C20,6.6,19.6,7,19,7z"/>
<path d="M26,11h-3c-0.6,0-1-0.4-1-1s0.4-1,1-1h3c0.6,0,1,0.4,1,1S26.6,11,26,11z"/>
<path d="M21.8,8.2c-0.3,0-0.5-0.1-0.7-0.3c-0.4-0.4-0.4-1,0-1.4l2.1-2.1c0.4-0.4,1-0.4,1.4,0s0.4,1,0,1.4l-2.1,2.1
	C22.3,8.1,22.1,8.2,21.8,8.2z"/>
</svg>