<?xml version="1.0" encoding="iso-8859-1"?>
<!-- Uploaded to: SVG Repo, www.svgrepo.com, Generator: SVG Repo Mixer Tools -->
<svg fill="#000000" height="800px" width="800px" version="1.1" id="Layer_1" xmlns="http://www.w3.org/2000/svg" xmlns:xlink="http://www.w3.org/1999/xlink" 
	 viewBox="0 0 512.001 512.001" xml:space="preserve">
<g>
	<g>
		<g>
			<path d="M332.536,160.598V117.55c0-6.503-5.271-11.775-11.775-11.775h-0.658c6.385-20.448,25.46-35.127,47.854-35.127
				c6.503,0,11.775-5.272,11.775-11.775V11.775C379.732,5.271,374.461,0,367.957,0H168.181c-4.75,0-8.832,2.818-10.694,6.868
				h-36.405c-6.503,0-11.775,5.271-11.775,11.775v47.099c0,6.503,5.272,11.775,11.775,11.775h35.811
				c1.44,4.877,5.945,8.439,11.287,8.439h11.572c0.452,8.338,0.272,21.23-3.165,35.302c-7.684,31.456-27.663,53.011-59.381,64.066
				c-6.141,2.139-9.384,8.853-7.244,14.994c1.693,4.858,6.249,7.903,11.118,7.903c1.286,0,2.594-0.213,3.876-0.659
				c49.499-17.251,67.838-53.414,74.508-80.714c3.857-15.791,4.295-30.349,3.868-40.492c12.9,1.759,24.335,9.277,31.191,20.066
				c-4.629,1.586-7.96,5.965-7.96,11.131v164.845h-90.223c-24.915,0-45.185,20.27-45.185,45.185v139.235
				c0,24.915,20.27,45.185,45.185,45.185H375.66c24.915,0,45.185-20.27,45.185-45.185V266.942
				C420.845,214.077,382.727,169.954,332.536,160.598z M156.406,53.967h-23.549V30.417h23.549V53.967z M197.52,62.406h-17.564
				V23.549h176.227v24.484c-30.097,4.829-54.227,27.874-60.386,57.743h-35.378C250.608,80.162,225.518,62.406,197.52,62.406z
				 M308.986,129.324v29.437h-58.873v-29.437H308.986z M397.296,440.371h-66.674c-6.503,0-11.775,5.272-11.775,11.775
				s5.271,11.775,11.775,11.775h66.674v2.894c0,11.93-9.706,21.636-21.636,21.636h-239.32c-11.93,0-21.636-9.706-21.636-21.636
				v-2.894h62.897c6.503,0,11.775-5.272,11.775-11.775s-5.272-11.775-11.775-11.775h-62.897V327.58
				c0-11.93,9.706-21.636,21.636-21.636h101.998c6.503,0,11.775-5.272,11.775-11.775V182.31h62.553
				c46.665,0,84.63,37.965,84.63,84.63V440.371z"/>
			<path d="M312.666,205.859c-6.503,0-11.775,5.271-11.775,11.775s5.271,11.775,11.775,11.775c20.695,0,37.532,16.837,37.532,37.532
				c0,6.503,5.272,11.775,11.775,11.775c6.503,0,11.775-5.271,11.775-11.775C373.747,233.26,346.346,205.859,312.666,205.859z"/>
			<path d="M224.307,440.371h-1.57c-6.503,0-11.775,5.272-11.775,11.775s5.271,11.775,11.775,11.775h1.57
				c6.503,0,11.775-5.272,11.775-11.775S230.81,440.371,224.307,440.371z"/>
		</g>
	</g>
</g>
</svg>