<?xml version="1.0" encoding="utf-8"?><!-- Uploaded to: SVG Repo, www.svgrepo.com, Generator: SVG Repo Mixer Tools -->
<svg fill="#000000" width="800px" height="800px" viewBox="0 0 24 24" xmlns="http://www.w3.org/2000/svg" id="wind" class="icon glyph"><path d="M10,20H3a1,1,0,0,1,0-2h7a1,1,0,0,1,0,2ZM10,8H3A1,1,0,0,1,3,6h7a1,1,0,0,0,0-2,1,1,0,0,1,0-2,3,3,0,0,1,0,6Z"></path><path d="M16,22a1,1,0,0,1,0-2,2,2,0,0,0,0-4H3a1,1,0,0,1,0-2H16a4,4,0,0,1,0,8Zm1.5-10H3a1,1,0,0,1,0-2H17.5a2.5,2.5,0,0,0,0-5,1,1,0,0,1,0-2,4.5,4.5,0,0,1,0,9Z"></path></svg>